<svg width="32" height="32" viewBox="0 0 32 32" fill="none" xmlns="http://www.w3.org/2000/svg">
<path d="M8.85843 6.57406L2 13.2089V19.7065V26.204H4.01348C5.11461 26.204 6.49888 26.2803 7.0809 26.3566C9.33034 26.6769 11.2652 27.8208 13.7348 30.2612C15.1506 31.6797 15.5438 32 15.9213 32C16.2989 32 16.7236 31.6492 18.3438 30.0477C20.4517 27.9886 21.5371 27.226 23.236 26.6464C24.1169 26.3413 24.6517 26.2956 27.1371 26.2346L30 26.1735V19.8132V13.4529L23.0787 6.74184C19.2719 3.06599 16.0629 0.0307388 15.9371 0.000234604C15.827 -0.0302696 12.6337 2.92871 8.85843 6.57406ZM19.6494 13.88L16 17.4339L12.2876 13.8343L8.57528 10.2347L12.2562 6.71134L15.9213 3.18801L19.618 6.7571L23.3146 10.3414L19.6494 13.88ZM12.9798 17.8914L14.7416 19.5234V23.6569V27.7903L14.1596 27.2565C11.7371 25.0449 9.42472 24.1145 6.08989 23.9772L4.2809 23.9162L4.23371 19.2336L4.20225 14.5511L5.49214 13.2852L6.79775 12.0192L9 14.1393C10.2112 15.3138 12.0045 17.0068 12.9798 17.8914ZM26.4449 13.2394L27.6404 14.4596V19.2336V24.0077L26.0045 24.0382C25.1079 24.0534 24.0382 24.1297 23.6135 24.2212C21.6472 24.6483 19.3978 25.8532 18.0449 27.1802C17.6674 27.5615 17.3056 27.8818 17.2584 27.8818C17.2112 27.8818 17.1955 25.9753 17.2112 23.6569L17.2427 19.4167L21.1438 15.7256C23.2831 13.697 25.0921 12.0192 25.1393 12.0192C25.2022 12.0192 25.7843 12.5683 26.4449 13.2394Z" fill="#F46655"/>
</svg>
